<?xml version="1.0" standalone="no"?><svg xmlns="http://www.w3.org/2000/svg" viewBox="0 0 1440 320"><path fill="#1b2027" fill-opacity="1" d="M0,320L40,282.7C80,245,160,171,240,138.7C320,107,400,117,480,149.3C560,181,640,235,720,213.3C800,192,880,96,960,58.7C1040,21,1120,43,1200,90.7C1280,139,1360,213,1400,250.7L1440,288L1440,320L1400,320C1360,320,1280,320,1200,320C1120,320,1040,320,960,320C880,320,800,320,720,320C640,320,560,320,480,320C400,320,320,320,240,320C160,320,80,320,40,320L0,320Z"></path></svg>